<svg width="21" height="20" viewBox="0 0 21 20" fill="none" xmlns="http://www.w3.org/2000/svg">
<g clip-path="url(#clip0_152_4269)">
<path d="M20.332 10C20.332 4.47715 15.8549 0 10.332 0C4.80918 0 0.332031 4.47715 0.332031 10C0.332031 14.9912 3.98887 19.1283 8.76953 19.8785V12.8906H6.23047V10H8.76953V7.79688C8.76953 5.29063 10.2625 3.90625 12.5467 3.90625C13.6404 3.90625 14.7852 4.10156 14.7852 4.10156V6.5625H13.5242C12.282 6.5625 11.8945 7.3334 11.8945 8.125V10H14.668L14.2246 12.8906H11.8945V19.8785C16.6752 19.1283 20.332 14.9912 20.332 10Z" fill="#333333"/>
</g>
<defs>
<clipPath id="clip0_152_4269">
<rect width="20" height="20" fill="white" transform="translate(0.332031)"/>
</clipPath>
</defs>
</svg>
