<svg width="30" height="31" viewBox="0 0 30 31" fill="none" xmlns="http://www.w3.org/2000/svg">
<path fill-rule="evenodd" clip-rule="evenodd" d="M22.5 15.5C22.5 16.1213 21.9963 16.625 21.375 16.625H11.4181L14.6547 19.5641C15.1026 19.9947 15.1166 20.7069 14.6859 21.1547C14.2553 21.6026 13.5431 21.6166 13.0953 21.1859L7.84525 16.3109C7.62466 16.0988 7.5 15.806 7.5 15.5C7.5 15.194 7.62466 14.9012 7.84525 14.6891L13.0953 9.81406C13.5431 9.38342 14.2553 9.39739 14.6859 9.84525C15.1166 10.2931 15.1026 11.0053 14.6547 11.4359L11.4181 14.375L21.375 14.375C21.9963 14.375 22.5 14.8787 22.5 15.5Z" fill="#262626"/>
</svg>
