<svg width="21" height="20" viewBox="0 0 21 20" fill="none" xmlns="http://www.w3.org/2000/svg">
<g clip-path="url(#clip0_152_4275)">
<path d="M18.8516 0H1.80859C0.992187 0 0.332031 0.644531 0.332031 1.44141V18.5547C0.332031 19.3516 0.992187 20 1.80859 20H18.8516C19.668 20 20.332 19.3516 20.332 18.5586V1.44141C20.332 0.644531 19.668 0 18.8516 0ZM6.26562 17.043H3.29688V7.49609H6.26562V17.043ZM4.78125 6.19531C3.82812 6.19531 3.05859 5.42578 3.05859 4.47656C3.05859 3.52734 3.82812 2.75781 4.78125 2.75781C5.73047 2.75781 6.5 3.52734 6.5 4.47656C6.5 5.42188 5.73047 6.19531 4.78125 6.19531ZM17.375 17.043H14.4102V12.4023C14.4102 11.2969 14.3906 9.87109 12.8672 9.87109C11.3242 9.87109 11.0898 11.0781 11.0898 12.3242V17.043H8.12891V7.49609H10.9727V8.80078H11.0117C11.4062 8.05078 12.375 7.25781 13.8164 7.25781C16.8203 7.25781 17.375 9.23438 17.375 11.8047V17.043Z" fill="#333333"/>
</g>
<defs>
<clipPath id="clip0_152_4275">
<rect width="20" height="20" fill="white" transform="translate(0.332031)"/>
</clipPath>
</defs>
</svg>
