<svg width="30" height="31" viewBox="0 0 30 31" fill="none" xmlns="http://www.w3.org/2000/svg">
<path fill-rule="evenodd" clip-rule="evenodd" d="M7.5 15.5C7.5 14.8787 8.00368 14.375 8.625 14.375H18.5819L15.3453 11.4359C14.8974 11.0053 14.8834 10.2931 15.3141 9.84525C15.7447 9.39739 16.4569 9.38342 16.9047 9.81406L22.1547 14.6891C22.3753 14.9012 22.5 15.194 22.5 15.5C22.5 15.806 22.3753 16.0988 22.1547 16.3109L16.9047 21.1859C16.4569 21.6166 15.7447 21.6026 15.3141 21.1547C14.8834 20.7069 14.8974 19.9947 15.3453 19.5641L18.5819 16.625H8.625C8.00368 16.625 7.5 16.1213 7.5 15.5Z" fill="#262626"/>
</svg>
