<svg width="21" height="18" viewBox="0 0 21 18" fill="none" xmlns="http://www.w3.org/2000/svg">
<path d="M6.62383 17.125C14.1691 17.125 18.2973 10.8723 18.2973 5.45155C18.2973 5.27577 18.2934 5.09608 18.2855 4.9203C19.0886 4.33955 19.7816 3.62021 20.332 2.79608C19.5841 3.12883 18.7901 3.34615 17.977 3.44061C18.8331 2.92742 19.4741 2.12123 19.7812 1.17147C18.9758 1.6488 18.095 1.98551 17.1766 2.16718C16.5577 1.50963 15.7395 1.07426 14.8484 0.928376C13.9574 0.782488 13.043 0.934209 12.2468 1.36008C11.4506 1.78595 10.8169 2.46225 10.4436 3.28443C10.0703 4.1066 9.97822 5.02885 10.1816 5.90858C8.55077 5.82674 6.95531 5.40309 5.49868 4.66508C4.04205 3.92708 2.75678 2.8912 1.72617 1.6246C1.20236 2.5277 1.04208 3.59637 1.27789 4.61341C1.5137 5.63045 2.12792 6.51954 2.9957 7.09999C2.34422 7.0793 1.70701 6.9039 1.13672 6.58827V6.63905C1.13614 7.58679 1.46378 8.50549 2.06396 9.23897C2.66413 9.97246 3.4998 10.4755 4.42891 10.6625C3.82541 10.8276 3.19202 10.8517 2.57773 10.7328C2.83991 11.5479 3.35001 12.2607 4.03684 12.7719C4.72367 13.2831 5.55297 13.5672 6.40898 13.5844C4.95572 14.7259 3.16051 15.3451 1.3125 15.3422C0.984771 15.3417 0.657364 15.3216 0.332031 15.282C2.20941 16.4865 4.39331 17.1262 6.62383 17.125Z" fill="#333333"/>
</svg>
